<?xml version="1.0" encoding="utf-8"?>
<!-- Generator: Adobe Illustrator 21.1.0, SVG Export Plug-In . SVG Version: 6.00 Build 0)  -->
<svg version="1.1" id="Layer_1" xmlns="http://www.w3.org/2000/svg" xmlns:xlink="http://www.w3.org/1999/xlink" x="0px" y="0px"
	 viewBox="0 0 143.1 57.2" style="enable-background:new 0 0 143.1 57.2;" xml:space="preserve">
<style type="text/css">
	.st0{fill:#FFFFFF;}
</style>
<path class="st0" d="M140.5,49.3c-4.6-1.9-9.7,2.3-10.2,2.5c-3,1.3-0.9-2.2,0.6-5c0.9-1.7,1.6-3.2,1.6-3.2c1.2-1.8,2.2-3.6,2.9-5
	c1.3-2.4,2.3-4.8,2.3-4.8h-4.4c0,0-8,18.8-16.4,19.1c-0.7,0-1.2-0.6-1.2-0.6c-1.1-0.9-0.1-3.2,0.9-4.7c2.5-4.2,7-7.8,11.8-8.9
	l2.2-4.4c-6.1,0.5-13,5.3-17.4,11.8c-1.7,1.6-10.9,8.5-9.7,5.4c2.5-4.1,4.6-6.5,7-9.8c3.2-4.4-3.2-6.3-2.5-8.5c0,0,0.3-0.8,0.5-1.9
	c0.2-1.1-0.7-2-1.8-2.2c-1.1-0.2-2.1,0.6-2.9,2.4c-0.4,1-0.3,1.7-0.2,2.2c-3.2,7.3-14.3,19.3-15.2,18.6c-0.8-0.6,1.4-4.6,2.3-6.3
	c2.5-3.9,4.9-8.4,6.8-12.1h-4.5c-2.9,5.7-5.4,10.7-8.4,13.6c-2.5,2.3-5,4.3-6.5,4.8c-1.2,0.2-1.2-0.4-0.7-1.6l8.9-16.8H82L80.4,37
	c-4.7,5.5-6.8,5.2-7.6,4.7c0.4-1.6,0.4-2.9,0.1-4c-0.4-1.5-1.4-2.9-2.9-3.4c-0.3-0.1-0.7-0.3-1.4-0.4c-4.6-0.9-9.9,4.1-13.9,10.7
	L54.5,45c-0.4,0.6-0.9,1.3-1.4,1.9c-11.3,9.6-11.3,4.9-8.2-0.8l8.6-16.1c3.9-6.5-0.5-11.9-7.7-9.8C45.7,13,42.8,6.8,33.9,8
	c-0.1,0-0.3,0-0.5,0.1c-0.3-2.3-1-5.7-3.8-7.4c-1-0.6-2.2-0.8-3.6-0.6c0,0,3,3.8,3.5,8.1c0,0.4,0.1,0.8,0.1,1.3
	C15.5,15.1,1.9,37.7,0.2,48.7c-1.2,7.6,2.3,10.3,7.6,6.9C22.6,45.2,32,30.6,33.7,12.3c4.9-1.4,8.6,1.4,7.9,10
	C31.9,27.3,22.8,41.5,21.1,51c-1.3,7.2,3.5,8.6,10.7,1.5c8.8-8.7,12.2-16.8,13.8-27.9c1.7-0.7,3.2-1.1,4.7-0.5
	c1.2,0.5,0.6,2.7,0.2,3.5C50.3,28.1,41,45.3,41,45.3c-4.1,6.3-3.6,18.2,12,6.7c0,2.7,2.5,4.7,4.1,5c5.4,1,10.1-3.6,12.6-8.1
	c0.5-0.9,0.9-1.7,1.3-2.5c1.5,0.4,3.9-0.4,5-0.9l-2.5,4.7c-0.8,1.7-1.8,4.1-0.7,5.9c1.7,2.6,7.2-0.2,11.1-2.6
	c-0.2,2.3,0.5,4.1,3.5,3.6c5.3-0.8,14.9-13.6,17.6-18.5c0.2-0.7,0.6-0.9,1.1-0.6c0.5,0.2,1.6,0.8,0.9,2.4c-2.2,4.3-11.8,12.7-7,16.2
	c2.9,2.1,9.5-3,11.6-4.1c-0.3,3.2,2.4,4.5,3.8,4.8c3.1,0.6,6.4-1.2,9.5-4c0,0.7,0.2,1.3,0.4,1.8c2.1,4.4,6.7,0.4,9.2-1.1
	c3.8-2.2,8.6-2,8.6-2C142.4,50.6,141.5,49.7,140.5,49.3 M27,23.6c-3.4,11-10.2,20.6-20.5,27.7c-0.6,0.4-1.3,0.4-1.8,0.1
	c-0.4-0.2-0.7-0.6-0.4-2.3C6.3,36,19.4,19.9,29.5,14.1C29.7,14,28.5,19.2,27,23.6 M29.2,49.5c-1.4,1.5-3,3-3.6,2.6
	c-1.2-0.8,2.1-10.2,6.3-15.6c1.8-2.2,4.7-5.7,8.9-8.6C39.4,36.8,36.4,41.9,29.2,49.5 M66.8,41.6c-0.7,1.9-0.4,2.9,0.3,3.4
	c-0.5,1.1-1,1.9-1,2c-1.6,2.9-4.1,5.8-7.6,5.8c-0.4,0-1-0.5-1-0.5c-2.5-2,4.2-15.6,10.3-14.3c0.3,0.1,0.6,0,0.8,0.4
	c0.2,0.3,0.3,0.8,0.2,1.4C68.1,39.7,67.3,40.2,66.8,41.6"/>
</svg>
